# xmcd
#
# Track frame offsets: 
#        150
#        9965
#        19152
#        29585
#        48240
#        60180
#        70605
#        83670
#        93260
#        103355
#        117607
#        131727
#        144275
#
# Disc length: 2082 seconds
#
# Revision: 0
# Processed by: cddbd v1.5.1PL2 Copyright (c) Steve Scherf et al.
# Submitted via: ExactAudioCopy v0.95b4
#
DISCID=a408200d
DTITLE=Bull Moose Jackson and The Flashcats - The Final Recordings
DYEAR=1992
DGENRE=Blues
TTITLE0=Get Off The Table, Mable (The Two Dollars Is For The Beer)
TTITLE1=Hey Moose, Hey Miss
TTITLE2=(Mama You Got Some) Shiny Diamonds
TTITLE3=(You're Sittin' On A) Time Bomb
TTITLE4=You Been Doin' To Him What I Wish You Were Doin' To Me
TTITLE5=I've Got A Gal Who Lives Up On A Hill
TTITLE6=Gimme That
TTITLE7=Oh! John
TTITLE8=Miss Lucy
TTITLE9=Big Fat Mamas Are Back In Style Again (Live)
TTITLE10=Big Ten Inch Record (Live)
TTITLE11=Vodka and Lime
TTITLE12=Sometimes I Wonder
EXTD=
EXTT0=
EXTT1=
EXTT2=
EXTT3=
EXTT4=
EXTT5=
EXTT6=
EXTT7=
EXTT8=
EXTT9=
EXTT10=
EXTT11=
EXTT12=
PLAYORDER=
